<?xml version="1.0" standalone="no"?>
<!DOCTYPE svg PUBLIC "-//W3C//DTD SVG 20010904//EN"
 "http://www.w3.org/TR/2001/REC-SVG-20010904/DTD/svg10.dtd">
<svg version="1.0" xmlns="http://www.w3.org/2000/svg"
 width="2456.000000pt" height="2456.000000pt" viewBox="0 0 2456.000000 2456.000000"
 preserveAspectRatio="xMidYMid meet">

<g transform="translate(0.000000,2456.000000) scale(0.100000,-0.100000)"
fill="#000000" stroke="none">
<path d="M11740 23879 c-3177 -149 -6108 -1563 -8212 -3964 -1397 -1595 -2341
-3585 -2693 -5678 -115 -688 -159 -1226 -159 -1947 0 -698 44 -1251 150 -1894
602 -3650 2918 -6797 6234 -8470 1290 -651 2693 -1053 4145 -1185 404 -37 594
-45 1065 -45 470 0 658 8 1065 45 1565 141 3093 604 4470 1354 1480 806 2758
1914 3770 3270 1282 1717 2064 3765 2249 5890 34 387 40 553 40 1035 0 599
-18 910 -85 1450 -263 2123 -1107 4118 -2454 5800 -1497 1869 -3539 3234
-5830 3896 -876 254 -1771 399 -2725 444 -235 11 -787 11 -1030 -1z m1121
-3560 c190 -38 335 -100 468 -200 232 -174 378 -403 436 -687 21 -102 21 -313
0 -417 -81 -395 -348 -704 -722 -838 -162 -59 -242 -67 -632 -67 -552 0 -873
-29 -1304 -115 -1501 -302 -2833 -1202 -3694 -2495 -404 -606 -699 -1316 -843
-2030 -88 -437 -113 -695 -114 -1170 -1 -473 28 -765 115 -1190 490 -2374
2440 -4220 4834 -4574 328 -48 495 -60 865 -60 446 0 732 27 1130 105 976 192
1853 614 2630 1267 160 135 545 520 682 682 539 639 920 1351 1153 2155 39
135 115 454 115 483 0 9 -553 12 -2280 12 l-2281 0 -84 -74 c-118 -103 -246
-188 -378 -251 -220 -105 -379 -144 -624 -152 -198 -7 -310 5 -474 48 -595
156 -1054 657 -1159 1265 -24 135 -28 369 -10 494 50 351 201 651 455 906 278
279 616 434 1008 463 443 33 876 -119 1203 -422 l62 -57 2950 0 c3199 0 3022
3 3187 -53 302 -104 555 -338 675 -627 76 -184 91 -312 79 -675 -45 -1400
-421 -2693 -1127 -3875 -853 -1429 -2156 -2581 -3672 -3247 -868 -381 -1758
-597 -2745 -663 -325 -22 -895 -13 -1255 21 -1913 176 -3725 1060 -5063 2467
-865 909 -1503 1996 -1867 3177 -324 1055 -428 2177 -304 3285 187 1666 894
3227 2029 4480 155 170 503 514 660 651 1188 1034 2591 1685 4115 1908 453 66
745 85 1351 89 296 2 337 0 430 -19z"/>
</g>
</svg>
